<mxfile host="app.diagrams.net" agent="Mozilla/5.0 (Windows NT 10.0; Win64; x64) AppleWebKit/537.36 (KHTML, like Gecko) Chrome/139.0.0.0 Safari/537.36" version="28.1.1">
  <diagram name="Page-1" id="V4M5h4nmcrpwohOQ4V9O">
    <mxGraphModel dx="2040" dy="1058" grid="1" gridSize="10" guides="1" tooltips="1" connect="1" arrows="1" fold="1" page="1" pageScale="1" pageWidth="1920" pageHeight="1200" math="0" shadow="0">
      <root>
        <mxCell id="0" />
        <mxCell id="1" parent="0" />
        <mxCell id="oiG7BgvF0jfkkBTJAYoV-1" value="&lt;font style=&quot;&quot;&gt;&lt;b style=&quot;&quot;&gt;&lt;span style=&quot;font-size: 55px;&quot;&gt;Sales Data Model&lt;/span&gt;&lt;font style=&quot;font-size: 26px;&quot;&gt; &lt;/font&gt;&lt;/b&gt;&lt;font style=&quot;font-size: 26px;&quot;&gt;&lt;font style=&quot;&quot;&gt;(Star Schema&lt;/font&gt;&lt;font style=&quot;&quot;&gt;)&lt;/font&gt;&lt;/font&gt;&lt;/font&gt;" style="text;html=1;align=center;verticalAlign=middle;whiteSpace=wrap;rounded=0;fillColor=default;" parent="1" vertex="1">
          <mxGeometry x="80" y="30" width="490" height="100" as="geometry" />
        </mxCell>
        <mxCell id="oiG7BgvF0jfkkBTJAYoV-32" value="&lt;font style=&quot;font-size: 32px;&quot;&gt;gold.dim_customers&lt;/font&gt;" style="shape=table;startSize=60;container=1;collapsible=1;childLayout=tableLayout;fixedRows=1;rowLines=0;fontStyle=1;align=center;resizeLast=1;html=1;rounded=1;fillColor=#fff2cc;strokeColor=#d6b656;fontSize=20;" parent="1" vertex="1">
          <mxGeometry x="180" y="220" width="360" height="600" as="geometry" />
        </mxCell>
        <mxCell id="oiG7BgvF0jfkkBTJAYoV-33" value="" style="shape=tableRow;horizontal=0;startSize=0;swimlaneHead=0;swimlaneBody=0;fillColor=none;collapsible=0;dropTarget=0;points=[[0,0.5],[1,0.5]];portConstraint=eastwest;top=0;left=0;right=0;bottom=1;fontSize=27;" parent="oiG7BgvF0jfkkBTJAYoV-32" vertex="1">
          <mxGeometry y="60" width="360" height="54" as="geometry" />
        </mxCell>
        <mxCell id="oiG7BgvF0jfkkBTJAYoV-34" value="PK" style="shape=partialRectangle;connectable=0;fillColor=none;top=0;left=0;bottom=0;right=0;fontStyle=1;overflow=hidden;whiteSpace=wrap;html=1;fontSize=27;" parent="oiG7BgvF0jfkkBTJAYoV-33" vertex="1">
          <mxGeometry width="60" height="54" as="geometry">
            <mxRectangle width="60" height="54" as="alternateBounds" />
          </mxGeometry>
        </mxCell>
        <mxCell id="oiG7BgvF0jfkkBTJAYoV-35" value="customer_key" style="shape=partialRectangle;connectable=0;fillColor=none;top=0;left=0;bottom=0;right=0;align=left;spacingLeft=6;fontStyle=5;overflow=hidden;whiteSpace=wrap;html=1;fontSize=27;" parent="oiG7BgvF0jfkkBTJAYoV-33" vertex="1">
          <mxGeometry x="60" width="300" height="54" as="geometry">
            <mxRectangle width="300" height="54" as="alternateBounds" />
          </mxGeometry>
        </mxCell>
        <mxCell id="oiG7BgvF0jfkkBTJAYoV-36" value="" style="shape=tableRow;horizontal=0;startSize=0;swimlaneHead=0;swimlaneBody=0;fillColor=none;collapsible=0;dropTarget=0;points=[[0,0.5],[1,0.5]];portConstraint=eastwest;top=0;left=0;right=0;bottom=0;fontSize=27;fontStyle=1" parent="oiG7BgvF0jfkkBTJAYoV-32" vertex="1">
          <mxGeometry y="114" width="360" height="54" as="geometry" />
        </mxCell>
        <mxCell id="oiG7BgvF0jfkkBTJAYoV-37" value="" style="shape=partialRectangle;connectable=0;fillColor=none;top=0;left=0;bottom=0;right=0;editable=1;overflow=hidden;whiteSpace=wrap;html=1;fontSize=27;fontStyle=1" parent="oiG7BgvF0jfkkBTJAYoV-36" vertex="1">
          <mxGeometry width="60" height="54" as="geometry">
            <mxRectangle width="60" height="54" as="alternateBounds" />
          </mxGeometry>
        </mxCell>
        <mxCell id="oiG7BgvF0jfkkBTJAYoV-38" value="customer_id" style="shape=partialRectangle;connectable=0;fillColor=none;top=0;left=0;bottom=0;right=0;align=left;spacingLeft=6;overflow=hidden;whiteSpace=wrap;html=1;fontSize=27;fontStyle=1" parent="oiG7BgvF0jfkkBTJAYoV-36" vertex="1">
          <mxGeometry x="60" width="300" height="54" as="geometry">
            <mxRectangle width="300" height="54" as="alternateBounds" />
          </mxGeometry>
        </mxCell>
        <mxCell id="oiG7BgvF0jfkkBTJAYoV-39" value="" style="shape=tableRow;horizontal=0;startSize=0;swimlaneHead=0;swimlaneBody=0;fillColor=none;collapsible=0;dropTarget=0;points=[[0,0.5],[1,0.5]];portConstraint=eastwest;top=0;left=0;right=0;bottom=0;fontSize=27;fontStyle=1" parent="oiG7BgvF0jfkkBTJAYoV-32" vertex="1">
          <mxGeometry y="168" width="360" height="54" as="geometry" />
        </mxCell>
        <mxCell id="oiG7BgvF0jfkkBTJAYoV-40" value="" style="shape=partialRectangle;connectable=0;fillColor=none;top=0;left=0;bottom=0;right=0;editable=1;overflow=hidden;whiteSpace=wrap;html=1;fontSize=27;fontStyle=1" parent="oiG7BgvF0jfkkBTJAYoV-39" vertex="1">
          <mxGeometry width="60" height="54" as="geometry">
            <mxRectangle width="60" height="54" as="alternateBounds" />
          </mxGeometry>
        </mxCell>
        <mxCell id="oiG7BgvF0jfkkBTJAYoV-41" value="customer_number" style="shape=partialRectangle;connectable=0;fillColor=none;top=0;left=0;bottom=0;right=0;align=left;spacingLeft=6;overflow=hidden;whiteSpace=wrap;html=1;fontSize=27;fontStyle=1" parent="oiG7BgvF0jfkkBTJAYoV-39" vertex="1">
          <mxGeometry x="60" width="300" height="54" as="geometry">
            <mxRectangle width="300" height="54" as="alternateBounds" />
          </mxGeometry>
        </mxCell>
        <mxCell id="oiG7BgvF0jfkkBTJAYoV-42" value="" style="shape=tableRow;horizontal=0;startSize=0;swimlaneHead=0;swimlaneBody=0;fillColor=none;collapsible=0;dropTarget=0;points=[[0,0.5],[1,0.5]];portConstraint=eastwest;top=0;left=0;right=0;bottom=0;fontSize=27;fontStyle=1" parent="oiG7BgvF0jfkkBTJAYoV-32" vertex="1">
          <mxGeometry y="222" width="360" height="54" as="geometry" />
        </mxCell>
        <mxCell id="oiG7BgvF0jfkkBTJAYoV-43" value="" style="shape=partialRectangle;connectable=0;fillColor=none;top=0;left=0;bottom=0;right=0;editable=1;overflow=hidden;whiteSpace=wrap;html=1;fontSize=27;fontStyle=1" parent="oiG7BgvF0jfkkBTJAYoV-42" vertex="1">
          <mxGeometry width="60" height="54" as="geometry">
            <mxRectangle width="60" height="54" as="alternateBounds" />
          </mxGeometry>
        </mxCell>
        <mxCell id="oiG7BgvF0jfkkBTJAYoV-44" value="first_name" style="shape=partialRectangle;connectable=0;fillColor=none;top=0;left=0;bottom=0;right=0;align=left;spacingLeft=6;overflow=hidden;whiteSpace=wrap;html=1;fontSize=27;fontStyle=1" parent="oiG7BgvF0jfkkBTJAYoV-42" vertex="1">
          <mxGeometry x="60" width="300" height="54" as="geometry">
            <mxRectangle width="300" height="54" as="alternateBounds" />
          </mxGeometry>
        </mxCell>
        <mxCell id="oiG7BgvF0jfkkBTJAYoV-46" style="shape=tableRow;horizontal=0;startSize=0;swimlaneHead=0;swimlaneBody=0;fillColor=none;collapsible=0;dropTarget=0;points=[[0,0.5],[1,0.5]];portConstraint=eastwest;top=0;left=0;right=0;bottom=0;fontSize=27;fontStyle=1" parent="oiG7BgvF0jfkkBTJAYoV-32" vertex="1">
          <mxGeometry y="276" width="360" height="54" as="geometry" />
        </mxCell>
        <mxCell id="oiG7BgvF0jfkkBTJAYoV-47" style="shape=partialRectangle;connectable=0;fillColor=none;top=0;left=0;bottom=0;right=0;editable=1;overflow=hidden;whiteSpace=wrap;html=1;fontSize=27;fontStyle=1" parent="oiG7BgvF0jfkkBTJAYoV-46" vertex="1">
          <mxGeometry width="60" height="54" as="geometry">
            <mxRectangle width="60" height="54" as="alternateBounds" />
          </mxGeometry>
        </mxCell>
        <mxCell id="oiG7BgvF0jfkkBTJAYoV-48" value="last_name" style="shape=partialRectangle;connectable=0;fillColor=none;top=0;left=0;bottom=0;right=0;align=left;spacingLeft=6;overflow=hidden;whiteSpace=wrap;html=1;fontSize=27;fontStyle=1" parent="oiG7BgvF0jfkkBTJAYoV-46" vertex="1">
          <mxGeometry x="60" width="300" height="54" as="geometry">
            <mxRectangle width="300" height="54" as="alternateBounds" />
          </mxGeometry>
        </mxCell>
        <mxCell id="oiG7BgvF0jfkkBTJAYoV-49" style="shape=tableRow;horizontal=0;startSize=0;swimlaneHead=0;swimlaneBody=0;fillColor=none;collapsible=0;dropTarget=0;points=[[0,0.5],[1,0.5]];portConstraint=eastwest;top=0;left=0;right=0;bottom=0;fontSize=27;fontStyle=1" parent="oiG7BgvF0jfkkBTJAYoV-32" vertex="1">
          <mxGeometry y="330" width="360" height="54" as="geometry" />
        </mxCell>
        <mxCell id="oiG7BgvF0jfkkBTJAYoV-50" value="" style="shape=partialRectangle;connectable=0;fillColor=none;top=0;left=0;bottom=0;right=0;editable=1;overflow=hidden;whiteSpace=wrap;html=1;fontSize=27;fontStyle=1" parent="oiG7BgvF0jfkkBTJAYoV-49" vertex="1">
          <mxGeometry width="60" height="54" as="geometry">
            <mxRectangle width="60" height="54" as="alternateBounds" />
          </mxGeometry>
        </mxCell>
        <mxCell id="oiG7BgvF0jfkkBTJAYoV-51" value="country" style="shape=partialRectangle;connectable=0;fillColor=none;top=0;left=0;bottom=0;right=0;align=left;spacingLeft=6;overflow=hidden;whiteSpace=wrap;html=1;fontSize=27;fontStyle=1" parent="oiG7BgvF0jfkkBTJAYoV-49" vertex="1">
          <mxGeometry x="60" width="300" height="54" as="geometry">
            <mxRectangle width="300" height="54" as="alternateBounds" />
          </mxGeometry>
        </mxCell>
        <mxCell id="oiG7BgvF0jfkkBTJAYoV-52" style="shape=tableRow;horizontal=0;startSize=0;swimlaneHead=0;swimlaneBody=0;fillColor=none;collapsible=0;dropTarget=0;points=[[0,0.5],[1,0.5]];portConstraint=eastwest;top=0;left=0;right=0;bottom=0;fontSize=27;fontStyle=1" parent="oiG7BgvF0jfkkBTJAYoV-32" vertex="1">
          <mxGeometry y="384" width="360" height="54" as="geometry" />
        </mxCell>
        <mxCell id="oiG7BgvF0jfkkBTJAYoV-53" style="shape=partialRectangle;connectable=0;fillColor=none;top=0;left=0;bottom=0;right=0;editable=1;overflow=hidden;whiteSpace=wrap;html=1;fontSize=27;fontStyle=1" parent="oiG7BgvF0jfkkBTJAYoV-52" vertex="1">
          <mxGeometry width="60" height="54" as="geometry">
            <mxRectangle width="60" height="54" as="alternateBounds" />
          </mxGeometry>
        </mxCell>
        <mxCell id="oiG7BgvF0jfkkBTJAYoV-54" value="marital_status" style="shape=partialRectangle;connectable=0;fillColor=none;top=0;left=0;bottom=0;right=0;align=left;spacingLeft=6;overflow=hidden;whiteSpace=wrap;html=1;fontSize=27;fontStyle=1" parent="oiG7BgvF0jfkkBTJAYoV-52" vertex="1">
          <mxGeometry x="60" width="300" height="54" as="geometry">
            <mxRectangle width="300" height="54" as="alternateBounds" />
          </mxGeometry>
        </mxCell>
        <mxCell id="oiG7BgvF0jfkkBTJAYoV-55" style="shape=tableRow;horizontal=0;startSize=0;swimlaneHead=0;swimlaneBody=0;fillColor=none;collapsible=0;dropTarget=0;points=[[0,0.5],[1,0.5]];portConstraint=eastwest;top=0;left=0;right=0;bottom=0;fontSize=27;fontStyle=1" parent="oiG7BgvF0jfkkBTJAYoV-32" vertex="1">
          <mxGeometry y="438" width="360" height="54" as="geometry" />
        </mxCell>
        <mxCell id="oiG7BgvF0jfkkBTJAYoV-56" style="shape=partialRectangle;connectable=0;fillColor=none;top=0;left=0;bottom=0;right=0;editable=1;overflow=hidden;whiteSpace=wrap;html=1;fontSize=27;fontStyle=1" parent="oiG7BgvF0jfkkBTJAYoV-55" vertex="1">
          <mxGeometry width="60" height="54" as="geometry">
            <mxRectangle width="60" height="54" as="alternateBounds" />
          </mxGeometry>
        </mxCell>
        <mxCell id="oiG7BgvF0jfkkBTJAYoV-57" value="gender" style="shape=partialRectangle;connectable=0;fillColor=none;top=0;left=0;bottom=0;right=0;align=left;spacingLeft=6;overflow=hidden;whiteSpace=wrap;html=1;fontSize=27;fontStyle=1" parent="oiG7BgvF0jfkkBTJAYoV-55" vertex="1">
          <mxGeometry x="60" width="300" height="54" as="geometry">
            <mxRectangle width="300" height="54" as="alternateBounds" />
          </mxGeometry>
        </mxCell>
        <mxCell id="oiG7BgvF0jfkkBTJAYoV-58" style="shape=tableRow;horizontal=0;startSize=0;swimlaneHead=0;swimlaneBody=0;fillColor=none;collapsible=0;dropTarget=0;points=[[0,0.5],[1,0.5]];portConstraint=eastwest;top=0;left=0;right=0;bottom=0;fontSize=27;fontStyle=1" parent="oiG7BgvF0jfkkBTJAYoV-32" vertex="1">
          <mxGeometry y="492" width="360" height="54" as="geometry" />
        </mxCell>
        <mxCell id="oiG7BgvF0jfkkBTJAYoV-59" style="shape=partialRectangle;connectable=0;fillColor=none;top=0;left=0;bottom=0;right=0;editable=1;overflow=hidden;whiteSpace=wrap;html=1;fontSize=27;fontStyle=1" parent="oiG7BgvF0jfkkBTJAYoV-58" vertex="1">
          <mxGeometry width="60" height="54" as="geometry">
            <mxRectangle width="60" height="54" as="alternateBounds" />
          </mxGeometry>
        </mxCell>
        <mxCell id="oiG7BgvF0jfkkBTJAYoV-60" value="birthdate" style="shape=partialRectangle;connectable=0;fillColor=none;top=0;left=0;bottom=0;right=0;align=left;spacingLeft=6;overflow=hidden;whiteSpace=wrap;html=1;fontSize=27;fontStyle=1" parent="oiG7BgvF0jfkkBTJAYoV-58" vertex="1">
          <mxGeometry x="60" width="300" height="54" as="geometry">
            <mxRectangle width="300" height="54" as="alternateBounds" />
          </mxGeometry>
        </mxCell>
        <mxCell id="oiG7BgvF0jfkkBTJAYoV-61" style="shape=tableRow;horizontal=0;startSize=0;swimlaneHead=0;swimlaneBody=0;fillColor=none;collapsible=0;dropTarget=0;points=[[0,0.5],[1,0.5]];portConstraint=eastwest;top=0;left=0;right=0;bottom=0;fontSize=27;fontStyle=1" parent="oiG7BgvF0jfkkBTJAYoV-32" vertex="1">
          <mxGeometry y="546" width="360" height="54" as="geometry" />
        </mxCell>
        <mxCell id="oiG7BgvF0jfkkBTJAYoV-62" style="shape=partialRectangle;connectable=0;fillColor=none;top=0;left=0;bottom=0;right=0;editable=1;overflow=hidden;whiteSpace=wrap;html=1;fontSize=27;fontStyle=1" parent="oiG7BgvF0jfkkBTJAYoV-61" vertex="1">
          <mxGeometry width="60" height="54" as="geometry">
            <mxRectangle width="60" height="54" as="alternateBounds" />
          </mxGeometry>
        </mxCell>
        <mxCell id="oiG7BgvF0jfkkBTJAYoV-63" value="country" style="shape=partialRectangle;connectable=0;fillColor=none;top=0;left=0;bottom=0;right=0;align=left;spacingLeft=6;overflow=hidden;whiteSpace=wrap;html=1;fontSize=27;fontStyle=1" parent="oiG7BgvF0jfkkBTJAYoV-61" vertex="1">
          <mxGeometry x="60" width="300" height="54" as="geometry">
            <mxRectangle width="300" height="54" as="alternateBounds" />
          </mxGeometry>
        </mxCell>
        <mxCell id="oiG7BgvF0jfkkBTJAYoV-64" value="&lt;font style=&quot;font-size: 32px;&quot;&gt;gold.dim_products&lt;/font&gt;" style="shape=table;startSize=60;container=1;collapsible=1;childLayout=tableLayout;fixedRows=1;rowLines=0;fontStyle=1;align=center;resizeLast=1;html=1;rounded=1;fillColor=#fff2cc;strokeColor=#d6b656;fontSize=20;" parent="1" vertex="1">
          <mxGeometry x="1330" y="220" width="360" height="654" as="geometry" />
        </mxCell>
        <mxCell id="oiG7BgvF0jfkkBTJAYoV-65" value="" style="shape=tableRow;horizontal=0;startSize=0;swimlaneHead=0;swimlaneBody=0;fillColor=none;collapsible=0;dropTarget=0;points=[[0,0.5],[1,0.5]];portConstraint=eastwest;top=0;left=0;right=0;bottom=1;fontSize=27;" parent="oiG7BgvF0jfkkBTJAYoV-64" vertex="1">
          <mxGeometry y="60" width="360" height="54" as="geometry" />
        </mxCell>
        <mxCell id="oiG7BgvF0jfkkBTJAYoV-66" value="PK" style="shape=partialRectangle;connectable=0;fillColor=none;top=0;left=0;bottom=0;right=0;fontStyle=1;overflow=hidden;whiteSpace=wrap;html=1;fontSize=27;" parent="oiG7BgvF0jfkkBTJAYoV-65" vertex="1">
          <mxGeometry width="60" height="54" as="geometry">
            <mxRectangle width="60" height="54" as="alternateBounds" />
          </mxGeometry>
        </mxCell>
        <mxCell id="oiG7BgvF0jfkkBTJAYoV-67" value="product_key" style="shape=partialRectangle;connectable=0;fillColor=none;top=0;left=0;bottom=0;right=0;align=left;spacingLeft=6;fontStyle=5;overflow=hidden;whiteSpace=wrap;html=1;fontSize=27;" parent="oiG7BgvF0jfkkBTJAYoV-65" vertex="1">
          <mxGeometry x="60" width="300" height="54" as="geometry">
            <mxRectangle width="300" height="54" as="alternateBounds" />
          </mxGeometry>
        </mxCell>
        <mxCell id="oiG7BgvF0jfkkBTJAYoV-68" value="" style="shape=tableRow;horizontal=0;startSize=0;swimlaneHead=0;swimlaneBody=0;fillColor=none;collapsible=0;dropTarget=0;points=[[0,0.5],[1,0.5]];portConstraint=eastwest;top=0;left=0;right=0;bottom=0;fontSize=27;fontStyle=1" parent="oiG7BgvF0jfkkBTJAYoV-64" vertex="1">
          <mxGeometry y="114" width="360" height="56" as="geometry" />
        </mxCell>
        <mxCell id="oiG7BgvF0jfkkBTJAYoV-69" value="" style="shape=partialRectangle;connectable=0;fillColor=none;top=0;left=0;bottom=0;right=0;editable=1;overflow=hidden;whiteSpace=wrap;html=1;fontSize=27;fontStyle=1" parent="oiG7BgvF0jfkkBTJAYoV-68" vertex="1">
          <mxGeometry width="60" height="56" as="geometry">
            <mxRectangle width="60" height="56" as="alternateBounds" />
          </mxGeometry>
        </mxCell>
        <mxCell id="oiG7BgvF0jfkkBTJAYoV-70" value="product_id" style="shape=partialRectangle;connectable=0;fillColor=none;top=0;left=0;bottom=0;right=0;align=left;spacingLeft=6;overflow=hidden;whiteSpace=wrap;html=1;fontSize=27;fontStyle=1" parent="oiG7BgvF0jfkkBTJAYoV-68" vertex="1">
          <mxGeometry x="60" width="300" height="56" as="geometry">
            <mxRectangle width="300" height="56" as="alternateBounds" />
          </mxGeometry>
        </mxCell>
        <mxCell id="oiG7BgvF0jfkkBTJAYoV-71" value="" style="shape=tableRow;horizontal=0;startSize=0;swimlaneHead=0;swimlaneBody=0;fillColor=none;collapsible=0;dropTarget=0;points=[[0,0.5],[1,0.5]];portConstraint=eastwest;top=0;left=0;right=0;bottom=0;fontSize=27;fontStyle=1" parent="oiG7BgvF0jfkkBTJAYoV-64" vertex="1">
          <mxGeometry y="170" width="360" height="52" as="geometry" />
        </mxCell>
        <mxCell id="oiG7BgvF0jfkkBTJAYoV-72" value="" style="shape=partialRectangle;connectable=0;fillColor=none;top=0;left=0;bottom=0;right=0;editable=1;overflow=hidden;whiteSpace=wrap;html=1;fontSize=27;fontStyle=1" parent="oiG7BgvF0jfkkBTJAYoV-71" vertex="1">
          <mxGeometry width="60" height="52" as="geometry">
            <mxRectangle width="60" height="52" as="alternateBounds" />
          </mxGeometry>
        </mxCell>
        <mxCell id="oiG7BgvF0jfkkBTJAYoV-73" value="product_number" style="shape=partialRectangle;connectable=0;fillColor=none;top=0;left=0;bottom=0;right=0;align=left;spacingLeft=6;overflow=hidden;whiteSpace=wrap;html=1;fontSize=27;fontStyle=1" parent="oiG7BgvF0jfkkBTJAYoV-71" vertex="1">
          <mxGeometry x="60" width="300" height="52" as="geometry">
            <mxRectangle width="300" height="52" as="alternateBounds" />
          </mxGeometry>
        </mxCell>
        <mxCell id="oiG7BgvF0jfkkBTJAYoV-74" value="" style="shape=tableRow;horizontal=0;startSize=0;swimlaneHead=0;swimlaneBody=0;fillColor=none;collapsible=0;dropTarget=0;points=[[0,0.5],[1,0.5]];portConstraint=eastwest;top=0;left=0;right=0;bottom=0;fontSize=27;fontStyle=1" parent="oiG7BgvF0jfkkBTJAYoV-64" vertex="1">
          <mxGeometry y="222" width="360" height="54" as="geometry" />
        </mxCell>
        <mxCell id="oiG7BgvF0jfkkBTJAYoV-75" value="" style="shape=partialRectangle;connectable=0;fillColor=none;top=0;left=0;bottom=0;right=0;editable=1;overflow=hidden;whiteSpace=wrap;html=1;fontSize=27;fontStyle=1" parent="oiG7BgvF0jfkkBTJAYoV-74" vertex="1">
          <mxGeometry width="60" height="54" as="geometry">
            <mxRectangle width="60" height="54" as="alternateBounds" />
          </mxGeometry>
        </mxCell>
        <mxCell id="oiG7BgvF0jfkkBTJAYoV-76" value="product_name" style="shape=partialRectangle;connectable=0;fillColor=none;top=0;left=0;bottom=0;right=0;align=left;spacingLeft=6;overflow=hidden;whiteSpace=wrap;html=1;fontSize=27;fontStyle=1" parent="oiG7BgvF0jfkkBTJAYoV-74" vertex="1">
          <mxGeometry x="60" width="300" height="54" as="geometry">
            <mxRectangle width="300" height="54" as="alternateBounds" />
          </mxGeometry>
        </mxCell>
        <mxCell id="oiG7BgvF0jfkkBTJAYoV-77" style="shape=tableRow;horizontal=0;startSize=0;swimlaneHead=0;swimlaneBody=0;fillColor=none;collapsible=0;dropTarget=0;points=[[0,0.5],[1,0.5]];portConstraint=eastwest;top=0;left=0;right=0;bottom=0;fontSize=27;fontStyle=1" parent="oiG7BgvF0jfkkBTJAYoV-64" vertex="1">
          <mxGeometry y="276" width="360" height="54" as="geometry" />
        </mxCell>
        <mxCell id="oiG7BgvF0jfkkBTJAYoV-78" style="shape=partialRectangle;connectable=0;fillColor=none;top=0;left=0;bottom=0;right=0;editable=1;overflow=hidden;whiteSpace=wrap;html=1;fontSize=27;fontStyle=1" parent="oiG7BgvF0jfkkBTJAYoV-77" vertex="1">
          <mxGeometry width="60" height="54" as="geometry">
            <mxRectangle width="60" height="54" as="alternateBounds" />
          </mxGeometry>
        </mxCell>
        <mxCell id="oiG7BgvF0jfkkBTJAYoV-79" value="category_id" style="shape=partialRectangle;connectable=0;fillColor=none;top=0;left=0;bottom=0;right=0;align=left;spacingLeft=6;overflow=hidden;whiteSpace=wrap;html=1;fontSize=27;fontStyle=1" parent="oiG7BgvF0jfkkBTJAYoV-77" vertex="1">
          <mxGeometry x="60" width="300" height="54" as="geometry">
            <mxRectangle width="300" height="54" as="alternateBounds" />
          </mxGeometry>
        </mxCell>
        <mxCell id="oiG7BgvF0jfkkBTJAYoV-80" style="shape=tableRow;horizontal=0;startSize=0;swimlaneHead=0;swimlaneBody=0;fillColor=none;collapsible=0;dropTarget=0;points=[[0,0.5],[1,0.5]];portConstraint=eastwest;top=0;left=0;right=0;bottom=0;fontSize=27;fontStyle=1" parent="oiG7BgvF0jfkkBTJAYoV-64" vertex="1">
          <mxGeometry y="330" width="360" height="54" as="geometry" />
        </mxCell>
        <mxCell id="oiG7BgvF0jfkkBTJAYoV-81" value="" style="shape=partialRectangle;connectable=0;fillColor=none;top=0;left=0;bottom=0;right=0;editable=1;overflow=hidden;whiteSpace=wrap;html=1;fontSize=27;fontStyle=1" parent="oiG7BgvF0jfkkBTJAYoV-80" vertex="1">
          <mxGeometry width="60" height="54" as="geometry">
            <mxRectangle width="60" height="54" as="alternateBounds" />
          </mxGeometry>
        </mxCell>
        <mxCell id="oiG7BgvF0jfkkBTJAYoV-82" value="category" style="shape=partialRectangle;connectable=0;fillColor=none;top=0;left=0;bottom=0;right=0;align=left;spacingLeft=6;overflow=hidden;whiteSpace=wrap;html=1;fontSize=27;fontStyle=1" parent="oiG7BgvF0jfkkBTJAYoV-80" vertex="1">
          <mxGeometry x="60" width="300" height="54" as="geometry">
            <mxRectangle width="300" height="54" as="alternateBounds" />
          </mxGeometry>
        </mxCell>
        <mxCell id="oiG7BgvF0jfkkBTJAYoV-83" style="shape=tableRow;horizontal=0;startSize=0;swimlaneHead=0;swimlaneBody=0;fillColor=none;collapsible=0;dropTarget=0;points=[[0,0.5],[1,0.5]];portConstraint=eastwest;top=0;left=0;right=0;bottom=0;fontSize=27;fontStyle=1" parent="oiG7BgvF0jfkkBTJAYoV-64" vertex="1">
          <mxGeometry y="384" width="360" height="54" as="geometry" />
        </mxCell>
        <mxCell id="oiG7BgvF0jfkkBTJAYoV-84" style="shape=partialRectangle;connectable=0;fillColor=none;top=0;left=0;bottom=0;right=0;editable=1;overflow=hidden;whiteSpace=wrap;html=1;fontSize=27;fontStyle=1" parent="oiG7BgvF0jfkkBTJAYoV-83" vertex="1">
          <mxGeometry width="60" height="54" as="geometry">
            <mxRectangle width="60" height="54" as="alternateBounds" />
          </mxGeometry>
        </mxCell>
        <mxCell id="oiG7BgvF0jfkkBTJAYoV-85" value="sub-category" style="shape=partialRectangle;connectable=0;fillColor=none;top=0;left=0;bottom=0;right=0;align=left;spacingLeft=6;overflow=hidden;whiteSpace=wrap;html=1;fontSize=27;fontStyle=1" parent="oiG7BgvF0jfkkBTJAYoV-83" vertex="1">
          <mxGeometry x="60" width="300" height="54" as="geometry">
            <mxRectangle width="300" height="54" as="alternateBounds" />
          </mxGeometry>
        </mxCell>
        <mxCell id="oiG7BgvF0jfkkBTJAYoV-86" style="shape=tableRow;horizontal=0;startSize=0;swimlaneHead=0;swimlaneBody=0;fillColor=none;collapsible=0;dropTarget=0;points=[[0,0.5],[1,0.5]];portConstraint=eastwest;top=0;left=0;right=0;bottom=0;fontSize=27;fontStyle=1" parent="oiG7BgvF0jfkkBTJAYoV-64" vertex="1">
          <mxGeometry y="438" width="360" height="54" as="geometry" />
        </mxCell>
        <mxCell id="oiG7BgvF0jfkkBTJAYoV-87" style="shape=partialRectangle;connectable=0;fillColor=none;top=0;left=0;bottom=0;right=0;editable=1;overflow=hidden;whiteSpace=wrap;html=1;fontSize=27;fontStyle=1" parent="oiG7BgvF0jfkkBTJAYoV-86" vertex="1">
          <mxGeometry width="60" height="54" as="geometry">
            <mxRectangle width="60" height="54" as="alternateBounds" />
          </mxGeometry>
        </mxCell>
        <mxCell id="oiG7BgvF0jfkkBTJAYoV-88" value="maintenance" style="shape=partialRectangle;connectable=0;fillColor=none;top=0;left=0;bottom=0;right=0;align=left;spacingLeft=6;overflow=hidden;whiteSpace=wrap;html=1;fontSize=27;fontStyle=1" parent="oiG7BgvF0jfkkBTJAYoV-86" vertex="1">
          <mxGeometry x="60" width="300" height="54" as="geometry">
            <mxRectangle width="300" height="54" as="alternateBounds" />
          </mxGeometry>
        </mxCell>
        <mxCell id="oiG7BgvF0jfkkBTJAYoV-89" style="shape=tableRow;horizontal=0;startSize=0;swimlaneHead=0;swimlaneBody=0;fillColor=none;collapsible=0;dropTarget=0;points=[[0,0.5],[1,0.5]];portConstraint=eastwest;top=0;left=0;right=0;bottom=0;fontSize=27;fontStyle=1" parent="oiG7BgvF0jfkkBTJAYoV-64" vertex="1">
          <mxGeometry y="492" width="360" height="54" as="geometry" />
        </mxCell>
        <mxCell id="oiG7BgvF0jfkkBTJAYoV-90" style="shape=partialRectangle;connectable=0;fillColor=none;top=0;left=0;bottom=0;right=0;editable=1;overflow=hidden;whiteSpace=wrap;html=1;fontSize=27;fontStyle=1" parent="oiG7BgvF0jfkkBTJAYoV-89" vertex="1">
          <mxGeometry width="60" height="54" as="geometry">
            <mxRectangle width="60" height="54" as="alternateBounds" />
          </mxGeometry>
        </mxCell>
        <mxCell id="oiG7BgvF0jfkkBTJAYoV-91" value="cost" style="shape=partialRectangle;connectable=0;fillColor=none;top=0;left=0;bottom=0;right=0;align=left;spacingLeft=6;overflow=hidden;whiteSpace=wrap;html=1;fontSize=27;fontStyle=1" parent="oiG7BgvF0jfkkBTJAYoV-89" vertex="1">
          <mxGeometry x="60" width="300" height="54" as="geometry">
            <mxRectangle width="300" height="54" as="alternateBounds" />
          </mxGeometry>
        </mxCell>
        <mxCell id="oiG7BgvF0jfkkBTJAYoV-92" style="shape=tableRow;horizontal=0;startSize=0;swimlaneHead=0;swimlaneBody=0;fillColor=none;collapsible=0;dropTarget=0;points=[[0,0.5],[1,0.5]];portConstraint=eastwest;top=0;left=0;right=0;bottom=0;fontSize=27;fontStyle=1" parent="oiG7BgvF0jfkkBTJAYoV-64" vertex="1">
          <mxGeometry y="546" width="360" height="54" as="geometry" />
        </mxCell>
        <mxCell id="oiG7BgvF0jfkkBTJAYoV-93" style="shape=partialRectangle;connectable=0;fillColor=none;top=0;left=0;bottom=0;right=0;editable=1;overflow=hidden;whiteSpace=wrap;html=1;fontSize=27;fontStyle=1" parent="oiG7BgvF0jfkkBTJAYoV-92" vertex="1">
          <mxGeometry width="60" height="54" as="geometry">
            <mxRectangle width="60" height="54" as="alternateBounds" />
          </mxGeometry>
        </mxCell>
        <mxCell id="oiG7BgvF0jfkkBTJAYoV-94" value="product_line" style="shape=partialRectangle;connectable=0;fillColor=none;top=0;left=0;bottom=0;right=0;align=left;spacingLeft=6;overflow=hidden;whiteSpace=wrap;html=1;fontSize=27;fontStyle=1" parent="oiG7BgvF0jfkkBTJAYoV-92" vertex="1">
          <mxGeometry x="60" width="300" height="54" as="geometry">
            <mxRectangle width="300" height="54" as="alternateBounds" />
          </mxGeometry>
        </mxCell>
        <mxCell id="oiG7BgvF0jfkkBTJAYoV-95" style="shape=tableRow;horizontal=0;startSize=0;swimlaneHead=0;swimlaneBody=0;fillColor=none;collapsible=0;dropTarget=0;points=[[0,0.5],[1,0.5]];portConstraint=eastwest;top=0;left=0;right=0;bottom=0;fontSize=27;fontStyle=1" parent="oiG7BgvF0jfkkBTJAYoV-64" vertex="1">
          <mxGeometry y="600" width="360" height="54" as="geometry" />
        </mxCell>
        <mxCell id="oiG7BgvF0jfkkBTJAYoV-96" style="shape=partialRectangle;connectable=0;fillColor=none;top=0;left=0;bottom=0;right=0;editable=1;overflow=hidden;whiteSpace=wrap;html=1;fontSize=27;fontStyle=1" parent="oiG7BgvF0jfkkBTJAYoV-95" vertex="1">
          <mxGeometry width="60" height="54" as="geometry">
            <mxRectangle width="60" height="54" as="alternateBounds" />
          </mxGeometry>
        </mxCell>
        <mxCell id="oiG7BgvF0jfkkBTJAYoV-97" value="start_date" style="shape=partialRectangle;connectable=0;fillColor=none;top=0;left=0;bottom=0;right=0;align=left;spacingLeft=6;overflow=hidden;whiteSpace=wrap;html=1;fontSize=27;fontStyle=1" parent="oiG7BgvF0jfkkBTJAYoV-95" vertex="1">
          <mxGeometry x="60" width="300" height="54" as="geometry">
            <mxRectangle width="300" height="54" as="alternateBounds" />
          </mxGeometry>
        </mxCell>
        <mxCell id="oiG7BgvF0jfkkBTJAYoV-101" value="&lt;font style=&quot;font-size: 32px;&quot;&gt;gold.fact_sales&lt;/font&gt;" style="shape=table;startSize=60;container=1;collapsible=1;childLayout=tableLayout;fixedRows=1;rowLines=0;fontStyle=1;align=center;resizeLast=1;html=1;rounded=1;fillColor=#dae8fc;strokeColor=#6c8ebf;fontSize=20;" parent="1" vertex="1">
          <mxGeometry x="750" y="240" width="360" height="552" as="geometry" />
        </mxCell>
        <mxCell id="oiG7BgvF0jfkkBTJAYoV-105" value="" style="shape=tableRow;horizontal=0;startSize=0;swimlaneHead=0;swimlaneBody=0;fillColor=none;collapsible=0;dropTarget=0;points=[[0,0.5],[1,0.5]];portConstraint=eastwest;top=0;left=0;right=0;bottom=0;fontSize=27;fontStyle=1" parent="oiG7BgvF0jfkkBTJAYoV-101" vertex="1">
          <mxGeometry y="60" width="360" height="56" as="geometry" />
        </mxCell>
        <mxCell id="oiG7BgvF0jfkkBTJAYoV-106" value="" style="shape=partialRectangle;connectable=0;fillColor=none;top=0;left=0;bottom=0;right=0;editable=1;overflow=hidden;whiteSpace=wrap;html=1;fontSize=27;fontStyle=1" parent="oiG7BgvF0jfkkBTJAYoV-105" vertex="1">
          <mxGeometry width="70" height="56" as="geometry">
            <mxRectangle width="70" height="56" as="alternateBounds" />
          </mxGeometry>
        </mxCell>
        <mxCell id="oiG7BgvF0jfkkBTJAYoV-107" value="order_number" style="shape=partialRectangle;connectable=0;fillColor=none;top=0;left=0;bottom=0;right=0;align=left;spacingLeft=6;overflow=hidden;whiteSpace=wrap;html=1;fontSize=27;fontStyle=1" parent="oiG7BgvF0jfkkBTJAYoV-105" vertex="1">
          <mxGeometry x="70" width="290" height="56" as="geometry">
            <mxRectangle width="290" height="56" as="alternateBounds" />
          </mxGeometry>
        </mxCell>
        <mxCell id="oiG7BgvF0jfkkBTJAYoV-108" value="" style="shape=tableRow;horizontal=0;startSize=0;swimlaneHead=0;swimlaneBody=0;fillColor=none;collapsible=0;dropTarget=0;points=[[0,0.5],[1,0.5]];portConstraint=eastwest;top=0;left=0;right=0;bottom=0;fontSize=27;fontStyle=1" parent="oiG7BgvF0jfkkBTJAYoV-101" vertex="1">
          <mxGeometry y="116" width="360" height="52" as="geometry" />
        </mxCell>
        <mxCell id="oiG7BgvF0jfkkBTJAYoV-109" value="FK1" style="shape=partialRectangle;connectable=0;fillColor=none;top=0;left=0;bottom=0;right=0;editable=1;overflow=hidden;whiteSpace=wrap;html=1;fontSize=27;fontStyle=1" parent="oiG7BgvF0jfkkBTJAYoV-108" vertex="1">
          <mxGeometry width="70" height="52" as="geometry">
            <mxRectangle width="70" height="52" as="alternateBounds" />
          </mxGeometry>
        </mxCell>
        <mxCell id="oiG7BgvF0jfkkBTJAYoV-110" value="product_key" style="shape=partialRectangle;connectable=0;fillColor=none;top=0;left=0;bottom=0;right=0;align=left;spacingLeft=6;overflow=hidden;whiteSpace=wrap;html=1;fontSize=27;fontStyle=1" parent="oiG7BgvF0jfkkBTJAYoV-108" vertex="1">
          <mxGeometry x="70" width="290" height="52" as="geometry">
            <mxRectangle width="290" height="52" as="alternateBounds" />
          </mxGeometry>
        </mxCell>
        <mxCell id="oiG7BgvF0jfkkBTJAYoV-111" value="" style="shape=tableRow;horizontal=0;startSize=0;swimlaneHead=0;swimlaneBody=0;fillColor=none;collapsible=0;dropTarget=0;points=[[0,0.5],[1,0.5]];portConstraint=eastwest;top=0;left=0;right=0;bottom=0;fontSize=27;fontStyle=1" parent="oiG7BgvF0jfkkBTJAYoV-101" vertex="1">
          <mxGeometry y="168" width="360" height="54" as="geometry" />
        </mxCell>
        <mxCell id="oiG7BgvF0jfkkBTJAYoV-112" value="FK2" style="shape=partialRectangle;connectable=0;fillColor=none;top=0;left=0;bottom=0;right=0;editable=1;overflow=hidden;whiteSpace=wrap;html=1;fontSize=27;fontStyle=1" parent="oiG7BgvF0jfkkBTJAYoV-111" vertex="1">
          <mxGeometry width="70" height="54" as="geometry">
            <mxRectangle width="70" height="54" as="alternateBounds" />
          </mxGeometry>
        </mxCell>
        <mxCell id="oiG7BgvF0jfkkBTJAYoV-113" value="customer_key" style="shape=partialRectangle;connectable=0;fillColor=none;top=0;left=0;bottom=0;right=0;align=left;spacingLeft=6;overflow=hidden;whiteSpace=wrap;html=1;fontSize=27;fontStyle=1" parent="oiG7BgvF0jfkkBTJAYoV-111" vertex="1">
          <mxGeometry x="70" width="290" height="54" as="geometry">
            <mxRectangle width="290" height="54" as="alternateBounds" />
          </mxGeometry>
        </mxCell>
        <mxCell id="oiG7BgvF0jfkkBTJAYoV-114" style="shape=tableRow;horizontal=0;startSize=0;swimlaneHead=0;swimlaneBody=0;fillColor=none;collapsible=0;dropTarget=0;points=[[0,0.5],[1,0.5]];portConstraint=eastwest;top=0;left=0;right=0;bottom=0;fontSize=27;fontStyle=1" parent="oiG7BgvF0jfkkBTJAYoV-101" vertex="1">
          <mxGeometry y="222" width="360" height="54" as="geometry" />
        </mxCell>
        <mxCell id="oiG7BgvF0jfkkBTJAYoV-115" style="shape=partialRectangle;connectable=0;fillColor=none;top=0;left=0;bottom=0;right=0;editable=1;overflow=hidden;whiteSpace=wrap;html=1;fontSize=27;fontStyle=1" parent="oiG7BgvF0jfkkBTJAYoV-114" vertex="1">
          <mxGeometry width="70" height="54" as="geometry">
            <mxRectangle width="70" height="54" as="alternateBounds" />
          </mxGeometry>
        </mxCell>
        <mxCell id="oiG7BgvF0jfkkBTJAYoV-116" value="order_date" style="shape=partialRectangle;connectable=0;fillColor=none;top=0;left=0;bottom=0;right=0;align=left;spacingLeft=6;overflow=hidden;whiteSpace=wrap;html=1;fontSize=27;fontStyle=1" parent="oiG7BgvF0jfkkBTJAYoV-114" vertex="1">
          <mxGeometry x="70" width="290" height="54" as="geometry">
            <mxRectangle width="290" height="54" as="alternateBounds" />
          </mxGeometry>
        </mxCell>
        <mxCell id="oiG7BgvF0jfkkBTJAYoV-117" style="shape=tableRow;horizontal=0;startSize=0;swimlaneHead=0;swimlaneBody=0;fillColor=none;collapsible=0;dropTarget=0;points=[[0,0.5],[1,0.5]];portConstraint=eastwest;top=0;left=0;right=0;bottom=0;fontSize=27;fontStyle=1" parent="oiG7BgvF0jfkkBTJAYoV-101" vertex="1">
          <mxGeometry y="276" width="360" height="60" as="geometry" />
        </mxCell>
        <mxCell id="oiG7BgvF0jfkkBTJAYoV-118" value="" style="shape=partialRectangle;connectable=0;fillColor=none;top=0;left=0;bottom=0;right=0;editable=1;overflow=hidden;whiteSpace=wrap;html=1;fontSize=27;fontStyle=1" parent="oiG7BgvF0jfkkBTJAYoV-117" vertex="1">
          <mxGeometry width="70" height="60" as="geometry">
            <mxRectangle width="70" height="60" as="alternateBounds" />
          </mxGeometry>
        </mxCell>
        <mxCell id="oiG7BgvF0jfkkBTJAYoV-119" value="ship_date" style="shape=partialRectangle;connectable=0;fillColor=none;top=0;left=0;bottom=0;right=0;align=left;spacingLeft=6;overflow=hidden;whiteSpace=wrap;html=1;fontSize=27;fontStyle=1" parent="oiG7BgvF0jfkkBTJAYoV-117" vertex="1">
          <mxGeometry x="70" width="290" height="60" as="geometry">
            <mxRectangle width="290" height="60" as="alternateBounds" />
          </mxGeometry>
        </mxCell>
        <mxCell id="oiG7BgvF0jfkkBTJAYoV-120" style="shape=tableRow;horizontal=0;startSize=0;swimlaneHead=0;swimlaneBody=0;fillColor=none;collapsible=0;dropTarget=0;points=[[0,0.5],[1,0.5]];portConstraint=eastwest;top=0;left=0;right=0;bottom=0;fontSize=27;fontStyle=1" parent="oiG7BgvF0jfkkBTJAYoV-101" vertex="1">
          <mxGeometry y="336" width="360" height="54" as="geometry" />
        </mxCell>
        <mxCell id="oiG7BgvF0jfkkBTJAYoV-121" style="shape=partialRectangle;connectable=0;fillColor=none;top=0;left=0;bottom=0;right=0;editable=1;overflow=hidden;whiteSpace=wrap;html=1;fontSize=27;fontStyle=1" parent="oiG7BgvF0jfkkBTJAYoV-120" vertex="1">
          <mxGeometry width="70" height="54" as="geometry">
            <mxRectangle width="70" height="54" as="alternateBounds" />
          </mxGeometry>
        </mxCell>
        <mxCell id="oiG7BgvF0jfkkBTJAYoV-122" value="due_date" style="shape=partialRectangle;connectable=0;fillColor=none;top=0;left=0;bottom=0;right=0;align=left;spacingLeft=6;overflow=hidden;whiteSpace=wrap;html=1;fontSize=27;fontStyle=1" parent="oiG7BgvF0jfkkBTJAYoV-120" vertex="1">
          <mxGeometry x="70" width="290" height="54" as="geometry">
            <mxRectangle width="290" height="54" as="alternateBounds" />
          </mxGeometry>
        </mxCell>
        <mxCell id="oiG7BgvF0jfkkBTJAYoV-123" style="shape=tableRow;horizontal=0;startSize=0;swimlaneHead=0;swimlaneBody=0;fillColor=none;collapsible=0;dropTarget=0;points=[[0,0.5],[1,0.5]];portConstraint=eastwest;top=0;left=0;right=0;bottom=0;fontSize=27;fontStyle=1" parent="oiG7BgvF0jfkkBTJAYoV-101" vertex="1">
          <mxGeometry y="390" width="360" height="54" as="geometry" />
        </mxCell>
        <mxCell id="oiG7BgvF0jfkkBTJAYoV-124" style="shape=partialRectangle;connectable=0;fillColor=none;top=0;left=0;bottom=0;right=0;editable=1;overflow=hidden;whiteSpace=wrap;html=1;fontSize=27;fontStyle=1" parent="oiG7BgvF0jfkkBTJAYoV-123" vertex="1">
          <mxGeometry width="70" height="54" as="geometry">
            <mxRectangle width="70" height="54" as="alternateBounds" />
          </mxGeometry>
        </mxCell>
        <mxCell id="oiG7BgvF0jfkkBTJAYoV-125" value="sales" style="shape=partialRectangle;connectable=0;fillColor=none;top=0;left=0;bottom=0;right=0;align=left;spacingLeft=6;overflow=hidden;whiteSpace=wrap;html=1;fontSize=27;fontStyle=1" parent="oiG7BgvF0jfkkBTJAYoV-123" vertex="1">
          <mxGeometry x="70" width="290" height="54" as="geometry">
            <mxRectangle width="290" height="54" as="alternateBounds" />
          </mxGeometry>
        </mxCell>
        <mxCell id="oiG7BgvF0jfkkBTJAYoV-126" style="shape=tableRow;horizontal=0;startSize=0;swimlaneHead=0;swimlaneBody=0;fillColor=none;collapsible=0;dropTarget=0;points=[[0,0.5],[1,0.5]];portConstraint=eastwest;top=0;left=0;right=0;bottom=0;fontSize=27;fontStyle=1" parent="oiG7BgvF0jfkkBTJAYoV-101" vertex="1">
          <mxGeometry y="444" width="360" height="54" as="geometry" />
        </mxCell>
        <mxCell id="oiG7BgvF0jfkkBTJAYoV-127" style="shape=partialRectangle;connectable=0;fillColor=none;top=0;left=0;bottom=0;right=0;editable=1;overflow=hidden;whiteSpace=wrap;html=1;fontSize=27;fontStyle=1" parent="oiG7BgvF0jfkkBTJAYoV-126" vertex="1">
          <mxGeometry width="70" height="54" as="geometry">
            <mxRectangle width="70" height="54" as="alternateBounds" />
          </mxGeometry>
        </mxCell>
        <mxCell id="oiG7BgvF0jfkkBTJAYoV-128" value="quantity" style="shape=partialRectangle;connectable=0;fillColor=none;top=0;left=0;bottom=0;right=0;align=left;spacingLeft=6;overflow=hidden;whiteSpace=wrap;html=1;fontSize=27;fontStyle=1" parent="oiG7BgvF0jfkkBTJAYoV-126" vertex="1">
          <mxGeometry x="70" width="290" height="54" as="geometry">
            <mxRectangle width="290" height="54" as="alternateBounds" />
          </mxGeometry>
        </mxCell>
        <mxCell id="oiG7BgvF0jfkkBTJAYoV-129" style="shape=tableRow;horizontal=0;startSize=0;swimlaneHead=0;swimlaneBody=0;fillColor=none;collapsible=0;dropTarget=0;points=[[0,0.5],[1,0.5]];portConstraint=eastwest;top=0;left=0;right=0;bottom=0;fontSize=27;fontStyle=1" parent="oiG7BgvF0jfkkBTJAYoV-101" vertex="1">
          <mxGeometry y="498" width="360" height="54" as="geometry" />
        </mxCell>
        <mxCell id="oiG7BgvF0jfkkBTJAYoV-130" style="shape=partialRectangle;connectable=0;fillColor=none;top=0;left=0;bottom=0;right=0;editable=1;overflow=hidden;whiteSpace=wrap;html=1;fontSize=27;fontStyle=1" parent="oiG7BgvF0jfkkBTJAYoV-129" vertex="1">
          <mxGeometry width="70" height="54" as="geometry">
            <mxRectangle width="70" height="54" as="alternateBounds" />
          </mxGeometry>
        </mxCell>
        <mxCell id="oiG7BgvF0jfkkBTJAYoV-131" value="price" style="shape=partialRectangle;connectable=0;fillColor=none;top=0;left=0;bottom=0;right=0;align=left;spacingLeft=6;overflow=hidden;whiteSpace=wrap;html=1;fontSize=27;fontStyle=1" parent="oiG7BgvF0jfkkBTJAYoV-129" vertex="1">
          <mxGeometry x="70" width="290" height="54" as="geometry">
            <mxRectangle width="290" height="54" as="alternateBounds" />
          </mxGeometry>
        </mxCell>
        <mxCell id="5vA_ghbmE7wzGfT6MWa4-1" value="" style="edgeStyle=entityRelationEdgeStyle;fontSize=12;html=1;endArrow=ERzeroToMany;startArrow=ERmandOne;rounded=0;exitX=1;exitY=0.5;exitDx=0;exitDy=0;entryX=0;entryY=0.5;entryDx=0;entryDy=0;" parent="1" source="oiG7BgvF0jfkkBTJAYoV-33" target="oiG7BgvF0jfkkBTJAYoV-111" edge="1">
          <mxGeometry width="100" height="100" relative="1" as="geometry">
            <mxPoint x="600" y="500" as="sourcePoint" />
            <mxPoint x="700" y="400" as="targetPoint" />
            <Array as="points">
              <mxPoint x="580" y="360" />
            </Array>
          </mxGeometry>
        </mxCell>
        <mxCell id="5vA_ghbmE7wzGfT6MWa4-4" value="" style="edgeStyle=entityRelationEdgeStyle;fontSize=12;html=1;endArrow=ERzeroToMany;startArrow=ERmandOne;rounded=0;exitX=0;exitY=0.5;exitDx=0;exitDy=0;entryX=1;entryY=0.5;entryDx=0;entryDy=0;" parent="1" source="oiG7BgvF0jfkkBTJAYoV-65" target="oiG7BgvF0jfkkBTJAYoV-108" edge="1">
          <mxGeometry width="100" height="100" relative="1" as="geometry">
            <mxPoint x="1160" y="510" as="sourcePoint" />
            <mxPoint x="1260" y="410" as="targetPoint" />
          </mxGeometry>
        </mxCell>
      </root>
    </mxGraphModel>
  </diagram>
</mxfile>
